<?xml version="1.0" encoding="iso-8859-1"?>
<!-- Generator: Adobe Illustrator 18.1.1, SVG Export Plug-In . SVG Version: 6.00 Build 0)  -->
<svg version="1.1" id="Capa_1" xmlns="http://www.w3.org/2000/svg" xmlns:xlink="http://www.w3.org/1999/xlink" x="0px" y="0px"
	 viewBox="0 0 101.403 101.403" style="enable-background:new 0 0 101.403 101.403;" xml:space="preserve">
<g>
	<g>
		<path style="fill:#010002;" d="M50.7,0C29.42,0,12.166,17.254,12.166,38.533c0,29.747,38.533,62.87,38.533,62.87
			s38.537-34.475,38.537-62.87C89.237,17.254,71.976,0,50.7,0z M69.27,58.622c-2.573-3.729-6.31-6.664-10.751-8.26
			c1.943-1.904,3.343-4.767,3.98-8.754c0.855,0.154,1.983-0.73,2.373-2.222c0.401-1.532,0.87-4.098-0.004-4.33
			c-0.254-0.072-0.526-0.018-0.795,0.118v-4.255c0.14-4.624-0.49-9.094-5.536-11.03c-0.923-1.893-0.981-3.615-0.981-3.615
			c-2.269,2.044-10.894,2.874-10.894,2.874l0.1,0.025c-10.933,1.124-9.355,5.057-9.355,11.746v4.255
			c-0.268-0.136-0.537-0.19-0.795-0.118c-0.873,0.233-0.608,2.706-0.208,4.237c0.39,1.503,1.732,2.487,2.591,2.312
			c0.655,4.187,1.958,6.972,3.758,8.797c-4.391,1.607-8.085,4.52-10.636,8.217c-6.002-5.204-9.813-12.87-9.813-21.437
			c0-15.683,12.709-28.391,28.391-28.391s28.391,12.709,28.391,28.391C79.094,45.752,75.279,53.418,69.27,58.622z"/>
	</g>
</g>
<g>
</g>
<g>
</g>
<g>
</g>
<g>
</g>
<g>
</g>
<g>
</g>
<g>
</g>
<g>
</g>
<g>
</g>
<g>
</g>
<g>
</g>
<g>
</g>
<g>
</g>
<g>
</g>
<g>
</g>
</svg>
